<?xml version="1.0" standalone="no"?>
<!DOCTYPE svg PUBLIC "-//W3C//DTD SVG 20010904//EN"
 "http://www.w3.org/TR/2001/REC-SVG-20010904/DTD/svg10.dtd">
<svg version="1.0" xmlns="http://www.w3.org/2000/svg"
 width="441.000000pt" height="441.000000pt" viewBox="0 0 441.000000 441.000000"
 preserveAspectRatio="xMidYMid meet">

<!-- White background -->
<rect width="441.000000" height="441.000000" fill="#ffffff"/>

<g transform="translate(0.000000,441.000000) scale(0.100000,-0.100000)"
fill="#000000" stroke="none">
<path d="M1998 3713 l-256 -258 253 -1492 c139 -820 255 -1497 257 -1504 2 -7
33 156 67 362 35 206 151 883 256 1504 l193 1130 -257 258 -256 257 -257 -257z"/>
<path d="M1031 2896 c-123 -123 -163 -169 -159 -183 18 -60 720 -1949 729
-1958 27 -28 494 -310 497 -300 2 9 -388 2353 -403 2420 -3 16 -48 34 -242 99
-131 43 -243 81 -248 83 -6 2 -84 -71 -174 -161z"/>
<path d="M3055 2978 c-132 -44 -241 -82 -243 -83 -5 -4 -412 -2439 -410 -2446
2 -4 116 64 254 149 l251 156 362 980 c199 540 361 986 361 991 0 11 -321 336
-330 334 -3 0 -113 -37 -245 -81z"/>
</g>
</svg>
